<?xml version="1.0" encoding="utf-8"?>
<!-- created with bpmn-js / http://bpmn.io -->
<!DOCTYPE svg PUBLIC "-//W3C//DTD SVG 1.1//EN" "http://www.w3.org/Graphics/SVG/1.1/DTD/svg11.dtd">
<svg xmlns="http://www.w3.org/2000/svg" xmlns:xlink="http://www.w3.org/1999/xlink" width="1528" height="415" viewBox="14 6 1528 415" version="1.1"><defs><marker id="sequenceflow-end-white-black-6jpok9y5gyf6jh7xa57bdtkv1" viewBox="0 0 20 20" refX="11" refY="10" markerWidth="10" markerHeight="10" orient="auto"><path d="M 1 5 L 11 10 L 1 15 Z" style="fill: black; stroke-width: 1px; stroke-linecap: round; stroke-dasharray: 10000, 1; stroke: black;"/></marker></defs><g class="djs-group"><g class="djs-element djs-shape" data-element-id="Participant_0hsdi14" style="display: block;" transform="translate(20 12)"><g class="djs-visual"><rect x="0" y="0" width="1516" height="403" rx="0" ry="0" style="stroke: black; stroke-width: 2px; fill: white; fill-opacity: 0.95;"/><polyline points="30,0 30,403 " style="fill: none; stroke: black; stroke-width: 2px;"/><text class="djs-label" style="font-family: Arial, sans-serif; font-size: 12px; fill: black;" transform="matrix(-1.83697e-16 -1 1 -1.83697e-16 0 403)"><tspan x="88.4375" y="18.33203125">Robo - Captura Coordenadas Geográficas</tspan></text></g><rect x="0" y="0" width="1516" height="403" class="djs-hit" style="fill: none; stroke-opacity: 0; stroke: white; stroke-width: 15px;"/><rect x="-6" y="-6" width="1528" height="415" class="djs-outline" style="fill: none;"/></g><g class="djs-children"><g class="djs-group"><g class="djs-element djs-shape" data-element-id="Lane_1ixl9sh" style="display: block;" transform="translate(50 12)"><g class="djs-visual"><rect x="0" y="0" width="1486" height="127" rx="0" ry="0" style="stroke: black; stroke-width: 2px; fill: white; fill-opacity: 0.35;"/><text class="djs-label" style="font-family: Arial, sans-serif; font-size: 12px; fill: black;" transform="matrix(-1.83697e-16 -1 1 -1.83697e-16 0 127)"><tspan x="43.9375" y="18.33203125">Viewer</tspan></text></g><rect x="0" y="0" width="1486" height="127" class="djs-hit" style="fill: none; stroke-opacity: 0; stroke: white; stroke-width: 15px;"/><rect x="-6" y="-6" width="1498" height="139" class="djs-outline" style="fill: none;"/></g></g><g class="djs-group"><g class="djs-element djs-shape" data-element-id="Lane_03y7r7v" style="display: block;" transform="translate(50 139)"><g class="djs-visual"><rect x="0" y="0" width="1486" height="128" rx="0" ry="0" style="stroke: black; stroke-width: 2px; fill: white; fill-opacity: 0.35;"/><text class="djs-label" style="font-family: Arial, sans-serif; font-size: 12px; fill: black;" transform="matrix(-1.83697e-16 -1 1 -1.83697e-16 0 128)"><tspan x="37.328125" y="18.33203125">Controller</tspan></text></g><rect x="0" y="0" width="1486" height="128" class="djs-hit" style="fill: none; stroke-opacity: 0; stroke: white; stroke-width: 15px;"/><rect x="-6" y="-6" width="1498" height="140" class="djs-outline" style="fill: none;"/></g></g><g class="djs-group"><g class="djs-element djs-shape hover" data-element-id="Lane_0ospiv3" style="display: block;" transform="translate(50 267)"><g class="djs-visual"><rect x="0" y="0" width="1486" height="148" rx="0" ry="0" style="stroke: black; stroke-width: 2px; fill: white; fill-opacity: 0.35;"/><text class="djs-label" style="font-family: Arial, sans-serif; font-size: 12px; fill: black;" transform="matrix(-1.83697e-16 -1 1 -1.83697e-16 0 148)"><tspan x="57.6640625" y="18.33203125">Model</tspan></text></g><rect x="0" y="0" width="1486" height="148" class="djs-hit" style="fill: none; stroke-opacity: 0; stroke: white; stroke-width: 15px;"/><rect x="-6" y="-6" width="1498" height="160" class="djs-outline" style="fill: none;"/></g></g><g class="djs-group"><g class="djs-element djs-connection" data-element-id="SequenceFlow_14s8vvd" style="display: block;"><g class="djs-visual"><path d="m  111,72L161,72 " style="fill: none; stroke-width: 2px; stroke: black; stroke-linejoin: round; marker-end: url('#sequenceflow-end-white-black-6jpok9y5gyf6jh7xa57bdtkv1');"/></g><polyline points="111,72 161,72 " class="djs-hit" style="fill: none; stroke-opacity: 0; stroke: white; stroke-width: 15px;"/><rect x="105" y="66" width="62" height="12" class="djs-outline" style="fill: none;"/></g></g><g class="djs-group"><g class="djs-element djs-connection" data-element-id="SequenceFlow_0n7m1p7" style="display: block;"><g class="djs-visual"><path d="m  1305,72L1350,72 " style="fill: none; stroke-width: 2px; stroke: black; stroke-linejoin: round; marker-end: url('#sequenceflow-end-white-black-6jpok9y5gyf6jh7xa57bdtkv1');"/></g><polyline points="1305,72 1350,72 " class="djs-hit" style="fill: none; stroke-opacity: 0; stroke: white; stroke-width: 15px;"/><rect x="1299" y="66" width="57" height="12" class="djs-outline" style="fill: none;"/></g></g><g class="djs-group"><g class="djs-element djs-connection" data-element-id="SequenceFlow_0xjazfs" style="display: block;"><g class="djs-visual"><path d="m  1450,72L1480,72 " style="fill: none; stroke-width: 2px; stroke: black; stroke-linejoin: round; marker-end: url('#sequenceflow-end-white-black-6jpok9y5gyf6jh7xa57bdtkv1');"/></g><polyline points="1450,72 1480,72 " class="djs-hit" style="fill: none; stroke-opacity: 0; stroke: white; stroke-width: 15px;"/><rect x="1444" y="66" width="42" height="12" class="djs-outline" style="fill: none;"/></g></g><g class="djs-group"><g class="djs-element djs-connection" data-element-id="SequenceFlow_0vdmzsh" style="display: block;"><g class="djs-visual"><path d="m  444,242L444,315 " style="fill: none; stroke-width: 2px; stroke: black; stroke-linejoin: round; marker-end: url('#sequenceflow-end-white-black-6jpok9y5gyf6jh7xa57bdtkv1');"/></g><polyline points="444,242 444,315 " class="djs-hit" style="fill: none; stroke-opacity: 0; stroke: white; stroke-width: 15px;"/><rect x="438" y="236" width="12" height="85" class="djs-outline" style="fill: none;"/></g></g><g class="djs-group"><g class="djs-element djs-connection" data-element-id="SequenceFlow_1pfochs" style="display: block;"><g class="djs-visual"><path d="m  494,355L542,355 L542,202 L590,202 " style="fill: none; stroke-width: 2px; stroke: black; stroke-linejoin: round; marker-end: url('#sequenceflow-end-white-black-6jpok9y5gyf6jh7xa57bdtkv1');"/></g><polyline points="494,355 542,355 542,202 590,202 " class="djs-hit" style="fill: none; stroke-opacity: 0; stroke: white; stroke-width: 15px;"/><rect x="488" y="196" width="108" height="165" class="djs-outline" style="fill: none;"/></g></g><g class="djs-group"><g class="djs-element djs-connection" data-element-id="SequenceFlow_077boed" style="display: block;"><g class="djs-visual"><path d="m  690,202L735,202 " style="fill: none; stroke-width: 2px; stroke: black; stroke-linejoin: round; marker-end: url('#sequenceflow-end-white-black-6jpok9y5gyf6jh7xa57bdtkv1');"/></g><polyline points="690,202 735,202 " class="djs-hit" style="fill: none; stroke-opacity: 0; stroke: white; stroke-width: 15px;"/><rect x="684" y="196" width="57" height="12" class="djs-outline" style="fill: none;"/></g></g><g class="djs-group"><g class="djs-element djs-connection" data-element-id="SequenceFlow_1ihompw" style="display: block;"><g class="djs-visual"><path d="m  771,202L816,202 " style="fill: none; stroke-width: 2px; stroke: black; stroke-linejoin: round; marker-end: url('#sequenceflow-end-white-black-6jpok9y5gyf6jh7xa57bdtkv1');"/></g><polyline points="771,202 816,202 " class="djs-hit" style="fill: none; stroke-opacity: 0; stroke: white; stroke-width: 15px;"/><rect x="765" y="196" width="57" height="12" class="djs-outline" style="fill: none;"/></g></g><g class="djs-group"><g class="djs-element djs-connection" data-element-id="SequenceFlow_03dknwm" style="display: block;"><g class="djs-visual"><path d="m  916,202L984,202 " style="fill: none; stroke-width: 2px; stroke: black; stroke-linejoin: round; marker-end: url('#sequenceflow-end-white-black-6jpok9y5gyf6jh7xa57bdtkv1');"/></g><polyline points="916,202 984,202 " class="djs-hit" style="fill: none; stroke-opacity: 0; stroke: white; stroke-width: 15px;"/><rect x="910" y="196" width="80" height="12" class="djs-outline" style="fill: none;"/></g></g><g class="djs-group"><g class="djs-element djs-connection" data-element-id="SequenceFlow_1q0h9xi" style="display: block;"><g class="djs-visual"><path d="m  1034,242L1034,309 " style="fill: none; stroke-width: 2px; stroke: black; stroke-linejoin: round; marker-end: url('#sequenceflow-end-white-black-6jpok9y5gyf6jh7xa57bdtkv1');"/></g><polyline points="1034,242 1034,309 " class="djs-hit" style="fill: none; stroke-opacity: 0; stroke: white; stroke-width: 15px;"/><rect x="1028" y="236" width="12" height="79" class="djs-outline" style="fill: none;"/></g></g><g class="djs-group"><g class="djs-element djs-connection" data-element-id="SequenceFlow_1qa51xp" style="display: block;"><g class="djs-visual"><path d="m  261,72L311,72 " style="fill: none; stroke-width: 2px; stroke: black; stroke-linejoin: round; marker-end: url('#sequenceflow-end-white-black-6jpok9y5gyf6jh7xa57bdtkv1');"/></g><polyline points="261,72 311,72 " class="djs-hit" style="fill: none; stroke-opacity: 0; stroke: white; stroke-width: 15px;"/><rect x="255" y="66" width="62" height="12" class="djs-outline" style="fill: none;"/></g></g><g class="djs-group"><g class="djs-element djs-connection" data-element-id="SequenceFlow_1rig14b" style="display: block;"><g class="djs-visual"><path d="m  347,202L394,202 " style="fill: none; stroke-width: 2px; stroke: black; stroke-linejoin: round; marker-end: url('#sequenceflow-end-white-black-6jpok9y5gyf6jh7xa57bdtkv1');"/></g><polyline points="347,202 394,202 " class="djs-hit" style="fill: none; stroke-opacity: 0; stroke: white; stroke-width: 15px;"/><rect x="341" y="196" width="59" height="12" class="djs-outline" style="fill: none;"/></g></g><g class="djs-group"><g class="djs-element djs-connection" data-element-id="SequenceFlow_0geq5xv" style="display: block;"><g class="djs-visual"><path d="m  1084,349L1129,349 " style="fill: none; stroke-width: 2px; stroke: black; stroke-linejoin: round; marker-end: url('#sequenceflow-end-white-black-6jpok9y5gyf6jh7xa57bdtkv1');"/></g><polyline points="1084,349 1129,349 " class="djs-hit" style="fill: none; stroke-opacity: 0; stroke: white; stroke-width: 15px;"/><rect x="1078" y="343" width="57" height="12" class="djs-outline" style="fill: none;"/></g></g><g class="djs-group"><g class="djs-element djs-connection" data-element-id="SequenceFlow_09yul4p" style="display: block;"><g class="djs-visual"><path d="m  1165,72L1205,72 " style="fill: none; stroke-width: 2px; stroke: black; stroke-linejoin: round; marker-end: url('#sequenceflow-end-white-black-6jpok9y5gyf6jh7xa57bdtkv1');"/></g><polyline points="1165,72 1205,72 " class="djs-hit" style="fill: none; stroke-opacity: 0; stroke: white; stroke-width: 15px;"/><rect x="1159" y="66" width="52" height="12" class="djs-outline" style="fill: none;"/></g></g><g class="djs-group"><g class="djs-element djs-shape" data-element-id="StartEvent_0s0t4p9" style="display: block;" transform="translate(75 54)"><g class="djs-visual"><circle cx="18" cy="18" r="18" style="stroke: black; stroke-width: 2px; fill: white; fill-opacity: 0.95;"/></g><rect x="0" y="0" width="36" height="36" class="djs-hit" style="fill: none; stroke-opacity: 0; stroke: white; stroke-width: 15px;"/><rect x="-6" y="-6" width="48" height="48" class="djs-outline" style="fill: none;"/></g></g><g class="djs-group"><g class="djs-element djs-shape" data-element-id="Task_00hk5vw" style="display: block;" transform="translate(161 32)"><g class="djs-visual"><rect x="0" y="0" width="100" height="80" rx="10" ry="10" style="stroke: black; stroke-width: 2px; fill: white; fill-opacity: 0.95;"/><text class="djs-label" style="font-family: Arial, sans-serif; font-size: 12px; fill: black;"><tspan x="13.3203125" y="36.66796875">Tela inicial do </tspan><tspan x="38.6640625" y="49.99609375">App</tspan></text></g><rect x="0" y="0" width="100" height="80" class="djs-hit" style="fill: none; stroke-opacity: 0; stroke: white; stroke-width: 15px;"/><rect x="-6" y="-6" width="112" height="92" class="djs-outline" style="fill: none;"/></g></g><g class="djs-group"><g class="djs-element djs-shape" data-element-id="StartEvent_0s0t4p9_label" style="display: none;" transform="translate(93 94)"><g class="djs-visual"><text class="djs-label" style="font-family: Arial, sans-serif; font-size: 11px;"><tspan x="0" y="12"/></text></g><rect x="0" y="0" width="0" height="12" class="djs-hit" style="fill: none; stroke-opacity: 0; stroke: white; stroke-width: 15px;"/><rect x="-6" y="-6" width="12" height="24" class="djs-outline" style="fill: none;"/></g></g><g class="djs-group"><g class="djs-element djs-shape" data-element-id="SequenceFlow_14s8vvd_label" style="display: none;" transform="translate(136 51)"><g class="djs-visual"><text class="djs-label" style="font-family: Arial, sans-serif; font-size: 11px;"><tspan x="0" y="12"/></text></g><rect x="0" y="0" width="0" height="12" class="djs-hit" style="fill: none; stroke-opacity: 0; stroke: white; stroke-width: 15px;"/><rect x="-6" y="-6" width="12" height="24" class="djs-outline" style="fill: none;"/></g></g><g class="djs-group"><g class="djs-element djs-shape selected" data-element-id="Task_07den28" style="display: block;" transform="translate(394 162)"><g class="djs-visual"><rect x="0" y="0" width="100" height="80" rx="10" ry="10" style="stroke: black; stroke-width: 2px; fill: white; fill-opacity: 0.95;"/><text class="djs-label" style="font-family: Arial, sans-serif; font-size: 12px; fill: black;"><tspan x="25.9921875" y="16.67578125">Capturar </tspan><tspan x="12.3125" y="30.00390625">Coordenadas </tspan><tspan x="17.3125" y="43.33203125">base tabela </tspan><tspan x="8.9921875" y="56.66015625">LOG_CAPTUR</tspan><tspan x="41.3359375" y="69.98828125">AS</tspan></text></g><rect x="0" y="0" width="100" height="80" class="djs-hit" style="fill: none; stroke-opacity: 0; stroke: white; stroke-width: 15px;"/><rect x="-6" y="-6" width="112" height="92" class="djs-outline" style="fill: none;"/></g></g><g class="djs-group"><g class="djs-element djs-shape" data-element-id="Task_1ar0fxx" style="display: block;" transform="translate(590 162)"><g class="djs-visual"><rect x="0" y="0" width="100" height="80" rx="10" ry="10" style="stroke: black; stroke-width: 2px; fill: white; fill-opacity: 0.95;"/><text class="djs-label" style="font-family: Arial, sans-serif; font-size: 12px; fill: black;"><tspan x="9.3203125" y="36.66796875">Montar URL de </tspan><tspan x="26.3203125" y="49.99609375">Consulta</tspan></text></g><rect x="0" y="0" width="100" height="80" class="djs-hit" style="fill: none; stroke-opacity: 0; stroke: white; stroke-width: 15px;"/><rect x="-6" y="-6" width="112" height="92" class="djs-outline" style="fill: none;"/></g></g><g class="djs-group"><g class="djs-element djs-shape" data-element-id="Task_15qbr37" style="display: block;" transform="translate(394 315)"><g class="djs-visual"><rect x="0" y="0" width="100" height="80" rx="10" ry="10" style="stroke: black; stroke-width: 2px; fill: white; fill-opacity: 0.95;"/><text class="djs-label" style="font-family: Arial, sans-serif; font-size: 12px; fill: black;"><tspan x="6.9765625" y="36.66796875">Conectar Banco</tspan><tspan x="23.984375" y="49.99609375">de Dados</tspan></text></g><rect x="0" y="0" width="100" height="80" class="djs-hit" style="fill: none; stroke-opacity: 0; stroke: white; stroke-width: 15px;"/><rect x="-6" y="-6" width="112" height="92" class="djs-outline" style="fill: none;"/></g></g><g class="djs-group"><g class="djs-element djs-shape" data-element-id="SequenceFlow_0vdmzsh_label" style="display: none;" transform="translate(459 272.5)"><g class="djs-visual"><text class="djs-label" style="font-family: Arial, sans-serif; font-size: 11px;"><tspan x="0" y="12"/></text></g><rect x="0" y="0" width="0" height="12" class="djs-hit" style="fill: none; stroke-opacity: 0; stroke: white; stroke-width: 15px;"/><rect x="-6" y="-6" width="12" height="24" class="djs-outline" style="fill: none;"/></g></g><g class="djs-group"><g class="djs-element djs-shape" data-element-id="SequenceFlow_1pfochs_label" style="display: none;" transform="translate(557 272.5)"><g class="djs-visual"><text class="djs-label" style="font-family: Arial, sans-serif; font-size: 11px;"><tspan x="0" y="12"/></text></g><rect x="0" y="0" width="0" height="12" class="djs-hit" style="fill: none; stroke-opacity: 0; stroke: white; stroke-width: 15px;"/><rect x="-6" y="-6" width="12" height="24" class="djs-outline" style="fill: none;"/></g></g><g class="djs-group"><g class="djs-element djs-shape" data-element-id="IntermediateThrowEvent_13owwc7" style="display: block;" transform="translate(311 54)"><g class="djs-visual"><circle cx="18" cy="18" r="18" style="stroke: black; stroke-width: 1px; fill: white; fill-opacity: 0.95;"/><circle cx="18" cy="18" r="15" style="stroke: black; stroke-width: 1px; fill: none;"/><path d="m 20.52,9.468 0,4.4375 -13.5,0 0,6.75 13.5,0 0,4.4375 9.84375,-7.8125 -9.84375,-7.8125 z" style="fill: black; stroke-width: 1px; stroke: black;"/></g><rect x="0" y="0" width="36" height="36" class="djs-hit" style="fill: none; stroke-opacity: 0; stroke: white; stroke-width: 15px;"/><rect x="-6" y="-6" width="48" height="48" class="djs-outline" style="fill: none;"/></g></g><g class="djs-group"><g class="djs-element djs-shape" data-element-id="IntermediateThrowEvent_18646rg_label" style="display: none;" transform="translate(290 54)"><g class="djs-visual"><text class="djs-label" style="font-family: Arial, sans-serif; font-size: 11px;"><tspan x="0" y="12"/></text></g><rect x="0" y="0" width="0" height="12" class="djs-hit" style="fill: none; stroke-opacity: 0; stroke: white; stroke-width: 15px;"/><rect x="-6" y="-6" width="12" height="24" class="djs-outline" style="fill: none;"/></g></g><g class="djs-group"><g class="djs-element djs-shape" data-element-id="SequenceFlow_1qa51xp_label" style="display: none;" transform="translate(286 51)"><g class="djs-visual"><text class="djs-label" style="font-family: Arial, sans-serif; font-size: 11px;"><tspan x="0" y="12"/></text></g><rect x="0" y="0" width="0" height="12" class="djs-hit" style="fill: none; stroke-opacity: 0; stroke: white; stroke-width: 15px;"/><rect x="-6" y="-6" width="12" height="24" class="djs-outline" style="fill: none;"/></g></g><g class="djs-group"><g class="djs-element djs-shape" data-element-id="IntermediateThrowEvent_04ptlt8" style="display: block;" transform="translate(311 184)"><g class="djs-visual"><circle cx="18" cy="18" r="18" style="stroke: black; stroke-width: 1px; fill: white; fill-opacity: 0.95;"/><circle cx="18" cy="18" r="15" style="stroke: black; stroke-width: 1px; fill: none;"/><path d="m 20.52,9.468 0,4.4375 -13.5,0 0,6.75 13.5,0 0,4.4375 9.84375,-7.8125 -9.84375,-7.8125 z" style="fill: none; stroke-width: 1px; stroke: black;"/></g><rect x="0" y="0" width="36" height="36" class="djs-hit" style="fill: none; stroke-opacity: 0; stroke: white; stroke-width: 15px;"/><rect x="-6" y="-6" width="48" height="48" class="djs-outline" style="fill: none;"/></g></g><g class="djs-group"><g class="djs-element djs-shape" data-element-id="IntermediateCatchEvent_1yx0jj3_label" style="display: none;" transform="translate(329 224)"><g class="djs-visual"><text class="djs-label" style="font-family: Arial, sans-serif; font-size: 11px;"><tspan x="0" y="12"/></text></g><rect x="0" y="0" width="0" height="12" class="djs-hit" style="fill: none; stroke-opacity: 0; stroke: white; stroke-width: 15px;"/><rect x="-6" y="-6" width="12" height="24" class="djs-outline" style="fill: none;"/></g></g><g class="djs-group"><g class="djs-element djs-shape" data-element-id="SequenceFlow_1rig14b_label" style="display: none;" transform="translate(370.5 181)"><g class="djs-visual"><text class="djs-label" style="font-family: Arial, sans-serif; font-size: 11px;"><tspan x="0" y="12"/></text></g><rect x="0" y="0" width="0" height="12" class="djs-hit" style="fill: none; stroke-opacity: 0; stroke: white; stroke-width: 15px;"/><rect x="-6" y="-6" width="12" height="24" class="djs-outline" style="fill: none;"/></g></g><g class="djs-group"><g class="djs-element djs-shape" data-element-id="IntermediateThrowEvent_0rl03dt" style="display: block;" transform="translate(735 184)"><g class="djs-visual"><circle cx="18" cy="18" r="18" style="stroke: black; stroke-width: 1px; fill: white; fill-opacity: 0.95;"/><circle cx="18" cy="18" r="15" style="stroke: black; stroke-width: 1px; fill: none;"/><path d="M 18,7.2 l 9,16.2 l -18,0 Z" style="fill: none; stroke-width: 1px; stroke: black;"/></g><rect x="0" y="0" width="36" height="36" class="djs-hit" style="fill: none; stroke-opacity: 0; stroke: white; stroke-width: 15px;"/><rect x="-6" y="-6" width="48" height="48" class="djs-outline" style="fill: none;"/></g></g><g class="djs-group"><g class="djs-element djs-shape" data-element-id="SequenceFlow_077boed_label" style="display: none;" transform="translate(712.5 181)"><g class="djs-visual"><text class="djs-label" style="font-family: Arial, sans-serif; font-size: 11px;"><tspan x="0" y="12"/></text></g><rect x="0" y="0" width="0" height="12" class="djs-hit" style="fill: none; stroke-opacity: 0; stroke: white; stroke-width: 15px;"/><rect x="-6" y="-6" width="12" height="24" class="djs-outline" style="fill: none;"/></g></g><g class="djs-group"><g class="djs-element djs-shape" data-element-id="IntermediateCatchEvent_1ex1m15_label" style="display: block;" transform="translate(719 224)"><g class="djs-visual"><text class="djs-label" style="font-family: Arial, sans-serif; font-size: 11px;"><tspan x="0" y="12">Disparar URL</tspan></text></g><rect x="0" y="0" width="68" height="12" class="djs-hit" style="fill: none; stroke-opacity: 0; stroke: white; stroke-width: 15px;"/><rect x="-6" y="-6" width="80" height="24" class="djs-outline" style="fill: none;"/></g></g><g class="djs-group"><g class="djs-element djs-shape" data-element-id="Task_1hxs0pg" style="display: block;" transform="translate(816 162)"><g class="djs-visual"><rect x="0" y="0" width="100" height="80" rx="10" ry="10" style="stroke: black; stroke-width: 2px; fill: white; fill-opacity: 0.95;"/><text class="djs-label" style="font-family: Arial, sans-serif; font-size: 12px; fill: black;"><tspan x="13.3203125" y="36.66796875">Receber XML </tspan><tspan x="30.9921875" y="49.99609375">retorno</tspan></text></g><rect x="0" y="0" width="100" height="80" class="djs-hit" style="fill: none; stroke-opacity: 0; stroke: white; stroke-width: 15px;"/><rect x="-6" y="-6" width="112" height="92" class="djs-outline" style="fill: none;"/></g></g><g class="djs-group"><g class="djs-element djs-shape" data-element-id="SequenceFlow_1ihompw_label" style="display: none;" transform="translate(793.5 181)"><g class="djs-visual"><text class="djs-label" style="font-family: Arial, sans-serif; font-size: 11px;"><tspan x="0" y="12"/></text></g><rect x="0" y="0" width="0" height="12" class="djs-hit" style="fill: none; stroke-opacity: 0; stroke: white; stroke-width: 15px;"/><rect x="-6" y="-6" width="12" height="24" class="djs-outline" style="fill: none;"/></g></g><g class="djs-group"><g class="djs-element djs-shape" data-element-id="Task_0u6s7g9" style="display: block;" transform="translate(984 162)"><g class="djs-visual"><rect x="0" y="0" width="100" height="80" rx="10" ry="10" style="stroke: black; stroke-width: 2px; fill: white; fill-opacity: 0.95;"/><text class="djs-label" style="font-family: Arial, sans-serif; font-size: 12px; fill: black;"><tspan x="25.9921875" y="30.00390625">Capturar </tspan><tspan x="13.640625" y="43.33203125">Coordenadas </tspan><tspan x="15.3203125" y="56.66015625">Gerográficas</tspan></text></g><rect x="0" y="0" width="100" height="80" class="djs-hit" style="fill: none; stroke-opacity: 0; stroke: white; stroke-width: 15px;"/><rect x="-6" y="-6" width="112" height="92" class="djs-outline" style="fill: none;"/></g></g><g class="djs-group"><g class="djs-element djs-shape" data-element-id="SequenceFlow_03dknwm_label" style="display: none;" transform="translate(950 181)"><g class="djs-visual"><text class="djs-label" style="font-family: Arial, sans-serif; font-size: 11px;"><tspan x="0" y="12"/></text></g><rect x="0" y="0" width="0" height="12" class="djs-hit" style="fill: none; stroke-opacity: 0; stroke: white; stroke-width: 15px;"/><rect x="-6" y="-6" width="12" height="24" class="djs-outline" style="fill: none;"/></g></g><g class="djs-group"><g class="djs-element djs-shape" data-element-id="Task_0syrm9n" style="display: block;" transform="translate(984 309)"><g class="djs-visual"><rect x="0" y="0" width="100" height="80" rx="10" ry="10" style="stroke: black; stroke-width: 2px; fill: white; fill-opacity: 0.95;"/><text class="djs-label" style="font-family: Arial, sans-serif; font-size: 12px; fill: black;"><tspan x="31" y="30.00390625">Gravar </tspan><tspan x="13.640625" y="43.33203125">Coordenadas </tspan><tspan x="17.3203125" y="56.66015625">Geográficas</tspan></text></g><rect x="0" y="0" width="100" height="80" class="djs-hit" style="fill: none; stroke-opacity: 0; stroke: white; stroke-width: 15px;"/><rect x="-6" y="-6" width="112" height="92" class="djs-outline" style="fill: none;"/></g></g><g class="djs-group"><g class="djs-element djs-shape" data-element-id="SequenceFlow_1q0h9xi_label" style="display: none;" transform="translate(1049 269.5)"><g class="djs-visual"><text class="djs-label" style="font-family: Arial, sans-serif; font-size: 11px;"><tspan x="0" y="12"/></text></g><rect x="0" y="0" width="0" height="12" class="djs-hit" style="fill: none; stroke-opacity: 0; stroke: white; stroke-width: 15px;"/><rect x="-6" y="-6" width="12" height="24" class="djs-outline" style="fill: none;"/></g></g><g class="djs-group"><g class="djs-element djs-shape" data-element-id="IntermediateThrowEvent_13v7fi1" style="display: block;" transform="translate(1129 331)"><g class="djs-visual"><circle cx="18" cy="18" r="18" style="stroke: black; stroke-width: 1px; fill: white; fill-opacity: 0.95;"/><circle cx="18" cy="18" r="15" style="stroke: black; stroke-width: 1px; fill: none;"/><path d="m 20.52,9.468 0,4.4375 -13.5,0 0,6.75 13.5,0 0,4.4375 9.84375,-7.8125 -9.84375,-7.8125 z" style="fill: black; stroke-width: 1px; stroke: black;"/></g><rect x="0" y="0" width="36" height="36" class="djs-hit" style="fill: none; stroke-opacity: 0; stroke: white; stroke-width: 15px;"/><rect x="-6" y="-6" width="48" height="48" class="djs-outline" style="fill: none;"/></g></g><g class="djs-group"><g class="djs-element djs-shape" data-element-id="SequenceFlow_0geq5xv_label" style="display: none;" transform="translate(1106.5 328)"><g class="djs-visual"><text class="djs-label" style="font-family: Arial, sans-serif; font-size: 11px;"><tspan x="0" y="12"/></text></g><rect x="0" y="0" width="0" height="12" class="djs-hit" style="fill: none; stroke-opacity: 0; stroke: white; stroke-width: 15px;"/><rect x="-6" y="-6" width="12" height="24" class="djs-outline" style="fill: none;"/></g></g><g class="djs-group"><g class="djs-element djs-shape" data-element-id="IntermediateThrowEvent_1mu3tio_label" style="display: none;" transform="translate(1147 371)"><g class="djs-visual"><text class="djs-label" style="font-family: Arial, sans-serif; font-size: 11px;"><tspan x="0" y="12"/></text></g><rect x="0" y="0" width="0" height="12" class="djs-hit" style="fill: none; stroke-opacity: 0; stroke: white; stroke-width: 15px;"/><rect x="-6" y="-6" width="12" height="24" class="djs-outline" style="fill: none;"/></g></g><g class="djs-group"><g class="djs-element djs-shape" data-element-id="IntermediateThrowEvent_0i9czp1" style="display: block;" transform="translate(1129 54)"><g class="djs-visual"><circle cx="18" cy="18" r="18" style="stroke: black; stroke-width: 1px; fill: white; fill-opacity: 0.95;"/><circle cx="18" cy="18" r="15" style="stroke: black; stroke-width: 1px; fill: none;"/><path d="m 20.52,9.468 0,4.4375 -13.5,0 0,6.75 13.5,0 0,4.4375 9.84375,-7.8125 -9.84375,-7.8125 z" style="fill: none; stroke-width: 1px; stroke: black;"/></g><rect x="0" y="0" width="36" height="36" class="djs-hit" style="fill: none; stroke-opacity: 0; stroke: white; stroke-width: 15px;"/><rect x="-6" y="-6" width="48" height="48" class="djs-outline" style="fill: none;"/></g></g><g class="djs-group"><g class="djs-element djs-shape" data-element-id="IntermediateCatchEvent_0elyid2_label" style="display: none;" transform="translate(1147 94)"><g class="djs-visual"><text class="djs-label" style="font-family: Arial, sans-serif; font-size: 11px;"><tspan x="0" y="12"/></text></g><rect x="0" y="0" width="0" height="12" class="djs-hit" style="fill: none; stroke-opacity: 0; stroke: white; stroke-width: 15px;"/><rect x="-6" y="-6" width="12" height="24" class="djs-outline" style="fill: none;"/></g></g><g class="djs-group"><g class="djs-element djs-shape" data-element-id="Task_0no0l34" style="display: block;" transform="translate(1205 32)"><g class="djs-visual"><rect x="0" y="0" width="100" height="80" rx="10" ry="10" style="stroke: black; stroke-width: 2px; fill: white; fill-opacity: 0.95;"/><text class="djs-label" style="font-family: Arial, sans-serif; font-size: 12px; fill: black;"><tspan x="19.3203125" y="30.00390625">Apresentar </tspan><tspan x="24.65625" y="43.33203125">Status do </tspan><tspan x="25.65625" y="56.66015625">processo</tspan></text></g><rect x="0" y="0" width="100" height="80" class="djs-hit" style="fill: none; stroke-opacity: 0; stroke: white; stroke-width: 15px;"/><rect x="-6" y="-6" width="112" height="92" class="djs-outline" style="fill: none;"/></g></g><g class="djs-group"><g class="djs-element djs-shape" data-element-id="SequenceFlow_09yul4p_label" style="display: none;" transform="translate(1185 51)"><g class="djs-visual"><text class="djs-label" style="font-family: Arial, sans-serif; font-size: 11px;"><tspan x="0" y="12"/></text></g><rect x="0" y="0" width="0" height="12" class="djs-hit" style="fill: none; stroke-opacity: 0; stroke: white; stroke-width: 15px;"/><rect x="-6" y="-6" width="12" height="24" class="djs-outline" style="fill: none;"/></g></g><g class="djs-group"><g class="djs-element djs-shape" data-element-id="Task_03yatdm" style="display: block;" transform="translate(1350 32)"><g class="djs-visual"><rect x="0" y="0" width="100" height="80" rx="10" ry="10" style="stroke: black; stroke-width: 2px; fill: white; fill-opacity: 0.95;"/><text class="djs-label" style="font-family: Arial, sans-serif; font-size: 12px; fill: black;"><tspan x="25.328125" y="36.66796875">Atualizar </tspan><tspan x="18.6484375" y="49.99609375">Contadores</tspan></text></g><rect x="0" y="0" width="100" height="80" class="djs-hit" style="fill: none; stroke-opacity: 0; stroke: white; stroke-width: 15px;"/><rect x="-6" y="-6" width="112" height="92" class="djs-outline" style="fill: none;"/></g></g><g class="djs-group"><g class="djs-element djs-shape" data-element-id="SequenceFlow_0n7m1p7_label" style="display: none;" transform="translate(1327.5 51)"><g class="djs-visual"><text class="djs-label" style="font-family: Arial, sans-serif; font-size: 11px;"><tspan x="0" y="12"/></text></g><rect x="0" y="0" width="0" height="12" class="djs-hit" style="fill: none; stroke-opacity: 0; stroke: white; stroke-width: 15px;"/><rect x="-6" y="-6" width="12" height="24" class="djs-outline" style="fill: none;"/></g></g><g class="djs-group"><g class="djs-element djs-shape" data-element-id="EndEvent_00zjemi" style="display: block;" transform="translate(1480 54)"><g class="djs-visual"><circle cx="18" cy="18" r="18" style="stroke: black; stroke-width: 4px; fill: white; fill-opacity: 0.95;"/></g><rect x="0" y="0" width="36" height="36" class="djs-hit" style="fill: none; stroke-opacity: 0; stroke: white; stroke-width: 15px;"/><rect x="-6" y="-6" width="48" height="48" class="djs-outline" style="fill: none;"/></g></g><g class="djs-group"><g class="djs-element djs-shape" data-element-id="SequenceFlow_0xjazfs_label" style="display: none;" transform="translate(1465 51)"><g class="djs-visual"><text class="djs-label" style="font-family: Arial, sans-serif; font-size: 11px;"><tspan x="0" y="12"/></text></g><rect x="0" y="0" width="0" height="12" class="djs-hit" style="fill: none; stroke-opacity: 0; stroke: white; stroke-width: 15px;"/><rect x="-6" y="-6" width="12" height="24" class="djs-outline" style="fill: none;"/></g></g><g class="djs-group"><g class="djs-element djs-shape" data-element-id="EndEvent_00zjemi_label" style="display: none;" transform="translate(1498 94)"><g class="djs-visual"><text class="djs-label" style="font-family: Arial, sans-serif; font-size: 11px;"><tspan x="0" y="12"/></text></g><rect x="0" y="0" width="0" height="12" class="djs-hit" style="fill: none; stroke-opacity: 0; stroke: white; stroke-width: 15px;"/><rect x="-6" y="-6" width="12" height="24" class="djs-outline" style="fill: none;"/></g></g></g></g><g class="djs-drag-group" style="pointer-events: none;" transform="translate(-4 0)"/><g class="djs-drag-group" style="pointer-events: none;" transform="translate(25 0)"/><g class="djs-drag-group" style="pointer-events: none;" transform="translate(21 0)"/><g class="djs-drag-group" style="pointer-events: none;" transform="translate(0 0)"/><g class="djs-drag-group" style="pointer-events: none;" transform="translate(0 0)"/><g class="djs-drag-group" style="pointer-events: none;" transform="translate(0 0)"/><g class="djs-drag-group" style="pointer-events: none;" transform="translate(20 0)"/><g class="djs-drag-group" style="pointer-events: none;" transform="translate(20 0)"/><g class="djs-drag-group" style="pointer-events: none;" transform="translate(20 0)"/><g class="djs-drag-group" style="pointer-events: none;" transform="translate(50 0)"/><g class="djs-drag-group" style="pointer-events: none;" transform="translate(29 0)"/><g class="djs-drag-group" style="pointer-events: none;" transform="translate(54 0)"/><g class="djs-drag-group" style="pointer-events: none;" transform="translate(77 -9)"/><g class="djs-drag-group" style="pointer-events: none;" transform="translate(4 20)"/><g class="djs-drag-group" style="pointer-events: none;" transform="translate(82 0)"/><g class="djs-drag-group" style="pointer-events: none;" transform="translate(295 72)"/><g class="djs-drag-group" style="pointer-events: none;" transform="translate(53 -11)"/><g class="djs-drag-group" style="pointer-events: none;" transform="translate(30 0)"/><g class="djs-drag-group" style="pointer-events: none;" transform="translate(-24 0)"/><g class="djs-drag-group" style="pointer-events: none;" transform="translate(15 0)"/><g class="djs-drag-group" style="pointer-events: none;" transform="translate(24 0)"/><g class="djs-drag-group" style="pointer-events: none;" transform="translate(24 0)"/><g class="djs-drag-group" style="pointer-events: none;" transform="translate(8 0)"/><g class="djs-drag-group" style="pointer-events: none;" transform="translate(57 0)"/><g class="djs-drag-group" style="pointer-events: none;" transform="translate(-103 26)"/><g class="djs-drag-group" style="pointer-events: none;" transform="translate(-142 0)"/><g class="djs-drag-group" style="pointer-events: none;" transform="translate(-26 0)"/><g class="djs-drag-group" style="pointer-events: none;" transform="translate(118 0)"/><g class="djs-drag-group" style="pointer-events: none;" transform="translate(41 0)"/><g class="djs-drag-group" style="pointer-events: none;" transform="translate(-11 0)"/><g class="djs-drag-group" style="pointer-events: none;" transform="translate(37 0)"/><g class="djs-drag-group" style="pointer-events: none;" transform="translate(-12 -10)"/><g class="djs-drag-group" style="pointer-events: none;" transform="translate(0 0)"/><g class="djs-drag-group" style="pointer-events: none;" transform="translate(-3 19)"/><g class="djs-drag-group" style="pointer-events: none;" transform="translate(-2 -9)"/><g class="djs-drag-group" style="pointer-events: none;" transform="translate(3 134)"/><g class="djs-drag-group" style="pointer-events: none;" transform="translate(528 -134)"/><g class="djs-drag-group" style="pointer-events: none;" transform="translate(-85 51)"/><g class="djs-drag-group" style="pointer-events: none;" transform="translate(100 -51)"/><g class="djs-drag-group" style="pointer-events: none;" transform="translate(12 97)"/><g class="djs-drag-group" style="pointer-events: none;" transform="translate(378 -60)"/><g class="djs-drag-group" style="pointer-events: none;" transform="translate(-125 96)"/><g class="djs-drag-group" style="pointer-events: none;" transform="translate(37 -37)"/><g class="djs-drag-group" style="pointer-events: none;" transform="translate(136 -96)"/><g class="djs-drag-group" style="pointer-events: none;" transform="translate(-20 36)"/><g class="djs-drag-group" style="pointer-events: none;" transform="translate(52 -26)"/><g class="djs-drag-group" style="pointer-events: none;" transform="translate(-28 56)"/><g class="djs-drag-group" style="pointer-events: none;" transform="translate(-15 -1)"/><g class="djs-drag-group" style="pointer-events: none;" transform="translate(8 97)"/><g class="djs-drag-group" style="pointer-events: none;" transform="translate(-323 0)"/><g class="djs-drag-group" style="pointer-events: none;" transform="translate(27 0)"/><g class="djs-drag-group" style="pointer-events: none;" transform="translate(-276 0)"/><g class="djs-drag-group" style="pointer-events: none;" transform="translate(254 28)"/><g class="djs-drag-group" style="pointer-events: none;" transform="translate(0 -28)"/><g class="djs-drag-group" style="pointer-events: none;" transform="translate(158 0)"/><g class="djs-drag-group" style="pointer-events: none;" transform="translate(96 0)"/><g class="djs-drag-group" style="pointer-events: none;" transform="translate(-20 0)"/><g class="djs-drag-group" style="pointer-events: none;" transform="translate(48 0)"/><g class="djs-drag-group" style="pointer-events: none;" transform="translate(-7 0)"/><g class="djs-drag-group" style="pointer-events: none;" transform="translate(20 0)"/><g class="djs-drag-group" style="pointer-events: none;" transform="translate(9 0)"/><g class="djs-drag-group" style="pointer-events: none;" transform="translate(6 0)"/><g class="djs-drag-group" style="pointer-events: none;" transform="translate(0 0)"/><g class="djs-drag-group" style="pointer-events: none;" transform="translate(55 0)"/><g class="djs-drag-group" style="pointer-events: none;" transform="translate(20 0)"/><g class="djs-drag-group" style="pointer-events: none;" transform="translate(15 0)"/><g class="djs-drag-group" style="pointer-events: none;" transform="translate(10 0)"/><g class="djs-drag-group" style="pointer-events: none;" transform="translate(-23 0)"/><g class="djs-drag-group" style="pointer-events: none;" transform="translate(-35 0)"/><g class="djs-drag-group" style="pointer-events: none;" transform="translate(-35 0)"/><g class="djs-drag-group" style="pointer-events: none;" transform="translate(24 0)"/><g class="djs-drag-group" style="pointer-events: none;" transform="translate(24 0)"/><g class="djs-drag-group" style="pointer-events: none;" transform="translate(24 14)"/><g class="djs-drag-group" style="pointer-events: none;" transform="translate(0 7)"/><g class="djs-drag-group" style="pointer-events: none;" transform="translate(0 21)"/><g class="djs-drag-group" style="pointer-events: none;" transform="translate(-12 0)"/><g class="djs-drag-group" style="pointer-events: none;" transform="translate(-123 111)"/><g class="djs-drag-group" style="pointer-events: none;" transform="translate(-16 0)"/><g class="djs-drag-group" style="pointer-events: none;" transform="translate(-67 111)"/><g class="djs-drag-group" style="pointer-events: none;" transform="translate(56 12)"/><g class="djs-drag-group" style="pointer-events: none;" transform="translate(0 0)"/><g class="djs-drag-group" style="pointer-events: none;" transform="translate(56 0)"/><g class="djs-drag-group" style="pointer-events: none;" transform="translate(6 12)"/><g class="djs-drag-group" style="pointer-events: none;" transform="translate(-15 0)"/><g class="djs-drag-group" style="pointer-events: none;" transform="translate(-100 0)"/><g class="djs-drag-group" style="pointer-events: none;" transform="translate(-110 0)"/><g class="djs-drag-group" style="pointer-events: none;" transform="translate(-20 0)"/><g class="djs-drag-group" style="pointer-events: none;" transform="translate(0 0)"/><g class="djs-drag-group" style="pointer-events: none;" transform="translate(-79 0)"/><g class="djs-drag-group" style="pointer-events: none;" transform="translate(-79 0)"/><g class="djs-drag-group" style="pointer-events: none;" transform="translate(-79 0)"/><g class="djs-drag-group" style="pointer-events: none;" transform="translate(-68 0)"/><g class="djs-drag-group" style="pointer-events: none;" transform="translate(-68 0)"/><g class="djs-drag-group" style="pointer-events: none;" transform="translate(40 10)"/><g class="djs-drag-group" style="pointer-events: none;" transform="translate(0 10)"/><g class="djs-drag-group" style="pointer-events: none;" transform="translate(35 22)"/><g class="djs-drag-group" style="pointer-events: none;" transform="translate(0 -12)"/><g class="djs-drag-group" style="pointer-events: none;" transform="translate(0 0)"/><g class="djs-drag-group" style="pointer-events: none;" transform="translate(-129 85)"/><g class="djs-drag-group" style="pointer-events: none;" transform="translate(0 17)"/><g class="djs-drag-group" style="pointer-events: none;" transform="translate(20 0)"/><g class="djs-drag-group" style="pointer-events: none;" transform="translate(687 315)"/><g class="djs-drag-group" style="pointer-events: none;" transform="translate(-740 -358)"/><g class="djs-drag-group" style="pointer-events: none;" transform="translate(-29 94)"/><g class="djs-drag-group" style="pointer-events: none;" transform="translate(713 -140)"/><g class="djs-drag-group" style="pointer-events: none;" transform="translate(-412 -61)"/><g class="djs-drag-group" style="pointer-events: none;" transform="translate(-597 108)"/><g class="djs-drag-group" style="pointer-events: none;" transform="translate(315 -66)"/><g class="djs-drag-group" style="pointer-events: none;" transform="translate(-287 36)"/><g class="djs-drag-group" style="pointer-events: none;" transform="translate(-10 13)"/><g class="djs-drag-group" style="pointer-events: none;" transform="translate(6 148)"/><g class="djs-drag-group" style="pointer-events: none;" transform="translate(-568 -24)"/><g class="djs-drag-group" style="pointer-events: none;" transform="translate(155 -31)"/><g class="djs-drag-group" style="pointer-events: none;" transform="translate(28 1)"/><g class="djs-drag-group" style="pointer-events: none;" transform="translate(-853 -28)"/><g class="djs-drag-group" style="pointer-events: none;" transform="translate(68 -35)"/><g class="djs-drag-group" style="pointer-events: none;" transform="translate(196 304)"/><g class="djs-drag-group" style="pointer-events: none;" transform="translate(-188 -286)"/><g class="djs-drag-group" style="pointer-events: none;" transform="translate(1070 -313)"/><g class="djs-drag-group" style="pointer-events: none;" transform="translate(-312 -26)"/><g class="djs-drag-group" style="pointer-events: none;" transform="translate(57 -45)"/><g class="djs-drag-group" style="pointer-events: none;" transform="translate(3 -76)"/><g class="djs-drag-group" style="pointer-events: none;" transform="translate(131 696)"/><g class="djs-drag-group" style="pointer-events: none;" transform="translate(-145 104)"/><g class="djs-drag-group" style="pointer-events: none;" transform="translate(288 -841)"/><g class="djs-drag-group" style="pointer-events: none;" transform="translate(-2 186)"/><g class="djs-drag-group" style="pointer-events: none;" transform="translate(34 416)"/><g class="djs-drag-group" style="pointer-events: none;" transform="translate(351 0)"/><g class="djs-drag-group" style="pointer-events: none;" transform="translate(-284 11)"/><g class="djs-drag-group" style="pointer-events: none;" transform="translate(-31 -26)"/><g class="djs-drag-group" style="pointer-events: none;" transform="translate(6 159)"/><g class="djs-drag-group" style="pointer-events: none;" transform="translate(-104 193)"/><g class="djs-drag-group" style="pointer-events: none;" transform="translate(172 33)"/><g class="djs-drag-group" style="pointer-events: none;" transform="translate(5 66)"/><g class="djs-drag-group" style="pointer-events: none;" transform="translate(-566 -19)"/><g class="djs-drag-group" style="pointer-events: none;" transform="translate(-557 9)"/><g class="djs-drag-group" style="pointer-events: none;" transform="translate(83 -14)"/><g class="djs-drag-group" style="pointer-events: none;" transform="translate(-14 -69)"/><g class="djs-drag-group" style="pointer-events: none;" transform="translate(141 5)"/><g class="djs-drag-group" style="pointer-events: none;" transform="translate(-113 9)"/><g class="djs-drag-group" style="pointer-events: none;" transform="translate(-3 -9)"/><g class="djs-drag-group" style="pointer-events: none;" transform="translate(39 403)"/><g class="djs-drag-group" style="pointer-events: none;" transform="translate(80 11)"/><g class="djs-drag-group" style="pointer-events: none;" transform="translate(89 7)"/><g class="djs-drag-group" style="pointer-events: none;" transform="translate(-14 0)"/><g class="djs-drag-group" style="pointer-events: none;" transform="translate(-49 9)"/><g class="djs-drag-group" style="pointer-events: none;" transform="translate(112 -448)"/><g class="djs-drag-group" style="pointer-events: none;" transform="translate(-8 19)"/><g class="djs-drag-group" style="pointer-events: none;" transform="translate(404 169)"/><g class="djs-drag-group" style="pointer-events: none;" transform="translate(-539 -237)"/><g class="djs-drag-group" style="pointer-events: none;" transform="translate(30 245)"/><g class="djs-drag-group" style="pointer-events: none;" transform="translate(218 56)"/><g class="djs-drag-group" style="pointer-events: none;" transform="translate(32 -37)"/><g class="djs-drag-group" style="pointer-events: none;" transform="translate(517 54)"/><g class="djs-drag-group" style="pointer-events: none;" transform="translate(-164 253)"/><g class="djs-drag-group" style="pointer-events: none;" transform="translate(14 -8)"/><g class="djs-drag-group" style="pointer-events: none;" transform="translate(-482 -113)"/><g class="djs-drag-group" style="pointer-events: none;" transform="translate(435 164)"/><g class="djs-drag-group" style="pointer-events: none;" transform="translate(46 -245)"/><g class="djs-drag-group" style="pointer-events: none;" transform="translate(-18 0)"/><g class="djs-drag-group" style="pointer-events: none;" transform="translate(-844 107)"/><g class="djs-drag-group" style="pointer-events: none;" transform="translate(-178 245)"/><g class="djs-drag-group" style="pointer-events: none;" transform="translate(5 -484)"/><g class="djs-drag-group" style="pointer-events: none;" transform="translate(-50 -69)"/><g class="djs-drag-group" style="pointer-events: none;" transform="translate(-39 -40)"/><g class="djs-drag-group" style="pointer-events: none;" transform="translate(14 -86)"/><g class="djs-drag-group" style="pointer-events: none;" transform="translate(-14 20)"/><g class="djs-drag-group" style="pointer-events: none;" transform="translate(0 -66)"/><g class="djs-drag-group" style="pointer-events: none;" transform="translate(0 -15)"/><g class="djs-drag-group" style="pointer-events: none;" transform="translate(0 -15)"/><g class="djs-drag-group" style="pointer-events: none;" transform="translate(-3 -29)"/><g class="djs-drag-group" style="pointer-events: none;" transform="translate(22 -29)"/><g class="djs-drag-group" style="pointer-events: none;" transform="translate(51 -29)"/><g class="djs-drag-group" style="pointer-events: none;" transform="translate(30 0)"/><g class="djs-drag-group" style="pointer-events: none;" transform="translate(-14 -138)"/><g class="djs-drag-group" style="pointer-events: none;" transform="translate(0 -11)"/><g class="djs-drag-group" style="pointer-events: none;" transform="translate(0 -17)"/><g class="djs-drag-group" style="pointer-events: none;" transform="translate(28 -52)"/><g class="djs-drag-group" style="pointer-events: none;" transform="translate(3 0)"/><g class="djs-drag-group" style="pointer-events: none;" transform="translate(-57 0)"/><g class="djs-drag-group" style="pointer-events: none;" transform="translate(-33 0)"/><g class="djs-drag-group" style="pointer-events: none;" transform="translate(-66 0)"/><g class="djs-drag-group" style="pointer-events: none;" transform="translate(-56 0)"/><g class="djs-drag-group" style="pointer-events: none;" transform="translate(-56 0)"/><g class="djs-drag-group" style="pointer-events: none;" transform="translate(-37 0)"/><g class="djs-drag-group" style="pointer-events: none;" transform="translate(-20 0)"/><g class="djs-drag-group" style="pointer-events: none;" transform="translate(-20 6)"/><g class="djs-drag-group" style="pointer-events: none;" transform="translate(0 -6)"/><g class="djs-drag-group" style="pointer-events: none;" transform="translate(-33 0)"/><g class="djs-drag-group" style="pointer-events: none;" transform="translate(-70 0)"/><g class="djs-drag-group" style="pointer-events: none;" transform="translate(-51 0)"/><g class="djs-drag-group" style="pointer-events: none;" transform="translate(-56 0)"/><g class="djs-drag-group" style="pointer-events: none;" transform="translate(-110 0)"/></svg>